<mxfile host="app.diagrams.net" modified="2023-11-06T08:28:03.139Z" agent="Mozilla/5.0 (Windows NT 10.0; Win64; x64) AppleWebKit/537.36 (KHTML, like Gecko) Chrome/118.0.0.0 Safari/537.36" version="22.0.8" etag="dpXcpVV7jBA8RVwWeIpA" type="github">
  <diagram name="Page-1" id="VoxUsDnUdav7pOP9MVrI">
    <mxGraphModel>
      <root>
        <mxCell id="0" />
        <mxCell id="1" parent="0" />
      </root>
    </mxGraphModel>
  </diagram>
</mxfile>
